<svg xmlns="http://www.w3.org/2000/svg" viewBox="0 0 75.92 34.41" fill="#000000">
  <path d="M72.44,21.92c1.18-.12,2.34-.33,3.48-.59-1.18.1-2.36.14-3.52.09h0s-.3,0-.3,0c-.08,0-.23,0-.39,0h-.21c1.02-.84,1.16-1.15,1.07-1.55-.08-.38-.42-.73-.91-.96-.63-.3-1.35-.32-1.89-.05-.67.33-1.02,1.06-1.11,1.63-.08.52.01.97.26,1.22.17.17.34.2.76.2.11,0,.24,0,.4,0-.48.37-1.07.81-1.78,1.33-1.74,1.3-2.89,2.15-3.22,1.93-.11-.07-.11-.26-.11-.58,0-.43,0-1.01-.36-1.63-.39-.66-1.03-1.08-1.65-1.31.3-.65.63-1.41,1.01-2.32,1.29-3.1,2.91-6.96,4.32-12.36.33-1.25.57-2.31.77-3.18.14-.15.26-.32.36-.5.45-.82.43-1.81.29-2.09l-.09-.16-.13-.02c-.32-.05-.36.13-.73,1.81-.05.22-.1.45-.16.7-.45.42-1.19.73-2.53,1.19-2.61.9-3.92,1.34-5.17,1.38-1.19.04-2.55.08-3.96-.72-.07-.04-.15-.09-.23-.13-.19-2.59-.63-5.19-1.48-5.24-.12-.01-.29.02-.48.21-.42.41-.73,1.36-.69,2.16.05,1.17.82,2.28,2.19,3.17.08,1.15.11,2.41.07,3.69-.06,1.9-.22,6.95-3.24,12.48-2.25,4.13-5.76,8.73-8.19,8.11-1.88-.48-2.66-3.79-2.91-5.2-.11-.61-.26-1.44.57-5.03.46-.57.88-1.11,1.28-1.62,1.42-1.84,2.25-3.25,3.91-6.07,1.45-2.46,2.13-3.88,2.35-5.82.11-1.01.28-3.38-.6-3.64-1.32-.39-3.58,4.67-4.24,6.23-.25.59-.72,1.69-1.88,5.82-.57,2.01-.98,3.6-1.28,4.86-1.21,1.48-2.72,3.11-4.79,4.7-1.33,1.02-2.12,1.43-3.13,1.95-.48.25-1.02.53-1.71.91.62-1.69,1.34-3.85,2.19-6.63,1.23-4,2.16-7.02,2.77-9.48.54-.8,1.07-1.63,1.57-2.5.28-.49,1.03-1.79,1.03-3.52,0-1.53-.59-3.09-1.11-3.54-.14-.12-.28-.17-.42-.15-.54.08-.62,1.04-.69,3.39,0,.37-.02.74-.04,1.09-.06,1.47-.32,3.02-.82,5.03-3.03,4.45-6.3,7.55-6.34,7.58-1.64,1.54-3.69,3.46-6.76,5.42-.93.59-1.61.97-2.19,1.28,1.05-1.83,1.71-3.48,2.21-4.72.57-1.42,1.63-4.06,2.18-7.57.28-1.81.38-3.52.38-5.01.13-.68.2-1.39.21-2.14,0-1.87-.42-3.56-.65-3.77l-.1-.08-.22.03-.06.08c-.1.12-.08.25.01,1.04.11.95.32,2.66.32,4.82-.45,2.35-1.59,4.29-2.78,6.31-2.04,3.47-4.23,5.67-5.68,7.13l-.09.09c-1.37,1.39-2.56,2.58-4.42,3.88-.77.53-1.82,1.26-3.15,2.01,2.98-3.37,7.44-9.98,8.84-20.35.05-.34.19-1.39-.21-2.61-.19-.57-.58-1.76-1.39-2.1-1.13-.47-2.7.78-4.33,2.61,0-.02-.02-.04-.02-.06-.05-.13-.2-.19-.32-.14-.13.05-.19.2-.14.32.04.1.08.21.11.31-.67.77-1.33,1.62-1.98,2.48-3.25,4.28-3.89,7.11-4.09,8.87-.16,1.38-.26,2.87.46,3.15,1.31.53,4.05-4.35,4.86-5.86,1.67-3.11,1.75-4.61,1.78-5.1.06-1.15-.09-2.3-.45-3.43,1.39-1.58,3.02-3.08,3.95-2.69.6.25.96,1.33,1.11,1.79.36,1.11.23,2.07.19,2.39-1.55,11.47-6.87,18.26-9.68,21.12-.78.38-1.63.76-2.56,1.1l-.2.07c-.77.28-1.83.66-3.08,1.5-1.16.78-2.51,1.98-2.61,2.48-.02.12.01.21.05.26.03.05.1.12.22.14.7.11,4.28-1.76,6.71-3.53.03-.02.72-.54,1.77-1.6,1.98-.98,3.47-2.02,4.48-2.72,1.9-1.32,3.1-2.53,4.49-3.94l.09-.09c1.38-1.39,3.68-3.71,5.75-7.23.84-1.43,1.7-2.89,2.29-4.51-.06.93-.15,1.9-.31,2.92-.54,3.46-1.59,6.06-2.15,7.46-.55,1.38-1.31,3.27-2.59,5.35-.69.36-1.34.74-2.28,1.44-3.32,2.49-5.85,5.92-5.91,6.75,0,.15.05.24.1.29.05.05.13.1.27.09.73-.05,4.03-2.61,6.63-5.98.58-.75,1.09-1.49,1.53-2.21.08-.04.16-.09.25-.13.7-.37,1.5-.78,2.7-1.55,3.11-1.98,5.17-3.92,6.83-5.47.04-.03,2.82-2.67,5.64-6.57-.57,2.12-1.37,4.73-2.43,8.16-.96,3.11-1.73,5.43-2.39,7.17-.5.3-1.07.65-1.73,1.08-6.08,3.96-6.67,5.02-6.4,5.58.07.15.21.25.42.32.18.06.43.09.71.09.92,0,2.28-.31,3.48-.92,1.35-.7,2.33-1.66,3.92-5.81.93-.55,1.62-.9,2.21-1.21,1.03-.53,1.84-.95,3.21-2,1.77-1.36,3.13-2.74,4.25-4.04-.55,2.59-.5,3.54-.37,4.28.33,1.86,1.2,5.06,3.28,5.59,3.42.87,7.56-6.18,8.75-8.36,3.08-5.64,3.24-10.77,3.3-12.7.03-.86.01-2.1-.07-3.4,1.51.83,2.98.79,4.17.75,1.32-.04,2.66-.5,5.32-1.41,1.01-.35,1.7-.62,2.2-.92-.17.74-.37,1.6-.63,2.57-1.4,5.37-3,9.21-4.29,12.29-.39.94-.73,1.71-1.03,2.37-.17-.04-.34-.06-.49-.08-1.53-.13-2.64.9-3.39,1.58-2.26,2.05-3.6,5.05-3.53,6.21.02.27.11.47.26.58.98.7,4.12-2.59,5.52-4.42.49-.65,1.02-1.42,1.9-3.28.56.2,1.11.57,1.43,1.11.3.5.3.97.29,1.37,0,.4,0,.78.33,1,.63.41,1.56-.28,3.8-1.95.98-.73,1.73-1.29,2.3-1.74.28,0,.43,0,.57.02h.23c.17.01.33.01.44.01h.28s0,0,0,0c0,0,0,0,0,0h.02s0,0,0,0ZM54.54,2.35c-.04-.98.47-1.83.64-1.85.34.1.78,1.91.99,4.4-.77-.57-1.59-1.43-1.63-2.54ZM43.82,14.65c1.16-4.11,1.62-5.18,1.86-5.76,1.53-3.58,3.09-5.96,3.6-5.96.01,0,.03,0,.04,0,.27.08.44,1.38.25,3.1-.21,1.84-.87,3.22-2.29,5.62-1.65,2.8-2.47,4.2-3.88,6.01-.2.25-.4.51-.61.78.26-1.06.6-2.31,1.02-3.8ZM38.27,5.61c.01-.35.03-.73.04-1.1.03-1.03.07-2.57.27-2.89.28.21.94,1.56.94,3.18,0,1.6-.7,2.81-.96,3.27-.26.46-.54.91-.81,1.34.3-1.41.48-2.64.53-3.8ZM12.85,8.48c-.03.46-.1,1.88-1.72,4.89-1.71,3.19-3.53,5.64-4.16,5.64-.03,0-.05,0-.07-.01-.19-.08-.37-.6-.14-2.64.19-1.7.82-4.44,3.99-8.62.38-.5,1.02-1.34,1.76-2.22.28.98.39,1.97.34,2.96ZM6.69,29.3c-2.41,1.76-5.08,3.08-6.02,3.38.35-.42,1.21-1.22,2.23-1.9,1.2-.8,2.23-1.18,2.98-1.45l.21-.08c.44-.16.87-.33,1.27-.5-.41.36-.65.54-.66.55ZM19.24,27.61c-2.33,3.01-5.13,5.23-6.03,5.7.42-.91,2.48-3.78,5.63-6.14.55-.41.99-.7,1.41-.95-.31.46-.64.93-1,1.39ZM28.01,33.04c-1.81.93-3.76,1-3.93.74-.05-.18.26-1.07,6.22-4.95.42-.27.81-.52,1.16-.73-1.39,3.48-2.28,4.34-3.46,4.95ZM60.44,25.07c-2.1,2.75-4.49,4.55-4.83,4.31-.01,0-.05-.06-.06-.21-.06-1.05,1.33-3.96,3.37-5.81.68-.62,1.61-1.46,2.81-1.46.07,0,.14,0,.21,0,.1,0,.21.02.31.04-.83,1.76-1.34,2.5-1.81,3.12ZM70.72,21.4h-.12c-.25,0-.47,0-.64,0-.49,0-.64,0-.69-.05-.1-.1-.18-.39-.11-.78.07-.45.33-1.02.84-1.27.2-.1.41-.14.62-.14.31,0,.61.08.84.19.34.16.58.4.63.62.05.22-.27.56-1.36,1.41Z"/>
</svg>