<?xml version="1.0" encoding="UTF-8"?>
<svg id="Capa_2" data-name="Capa 2" xmlns="http://www.w3.org/2000/svg" viewBox="0 0 244.33 128.5">
  <defs>
    <style>
      .cls-1 {
        fill: none;
      }

      .cls-2 {
        fill: #565a5c;
      }

      .cls-3 {
        fill: #92b33a;
      }
    </style>
  </defs>
  <g id="Capa_1-2" data-name="Capa 1">
    <g>
      <g>
        <path class="cls-2" d="M98.86,46.12h1.44v5.02c0,1.55.78,2.12,2.2,2.12.91,0,1.55-.55,1.55-1.72v-5.42h1.39v5.11c0,2.03-1.17,3.16-3.44,3.16-1.95,0-3.14-.93-3.14-2.79v-5.47ZM114.47,54.39l-4.33-6.2v6.03h-1.32v-8.1h1.45l4.12,6v-6h1.31v8.02l-1.22.25ZM120.69,54.22h-1.45v-8.1h1.45v8.1ZM123.3,46.2l1.49-.25,2.33,6.71,2.26-6.55h1.47l-3.09,8.03-1.42.23-3.04-8.18ZM133.48,46.12h5.07l-.13,1.07c-1.16-.02-2.33-.03-3.49-.05v2.41h3.22l-.15.98-3.07-.05v2.68l3.85-.05-.13,1.11h-5.17v-8.1ZM143.07,50.86v3.36h-1.45v-8.1h2.78c1.75,0,2.78.69,2.78,2.05,0,1.11-.63,1.87-1.47,2.3l2.13,3.75h-1.64l-1.7-3.39c-.23.03-.46.05-.68.05-.18,0-.46-.02-.74-.02ZM145.68,48.58c0-.96-.55-1.49-1.77-1.49-.3,0-.58,0-.84.02v2.74c.33.03.68.05,1.07.05.79,0,1.54-.35,1.54-1.32ZM150.42,48.19c0-1.26,1.24-2.23,2.99-2.23.98,0,1.88.13,2.46.31l-.26,1.17c-.78-.28-1.64-.46-2.58-.46-.74,0-1.27.35-1.27.99s.48,1.01,1.79,1.52c2.07.81,2.5,1.42,2.5,2.48,0,1.44-1.34,2.45-3.42,2.45-.84,0-1.77-.17-2.38-.35l.28-1.22c.81.31,1.72.51,2.76.51.71,0,1.37-.36,1.37-1.01,0-.69-.36-1.12-1.87-1.7-1.67-.64-2.36-1.21-2.36-2.46ZM160.49,54.22h-1.45v-8.1h1.45v8.1ZM166.82,46.12c2.5,0,4.1,1.37,4.1,3.8,0,2.73-2.07,4.3-4.76,4.3h-2.15v-8.1h2.81ZM165.47,53.15c.36.03.93.05,1.42.05,1.29,0,2.55-.74,2.55-3.02,0-2.15-1.39-3.02-3.07-3.02h-.89v6ZM178.02,52h-3.17l-.78,2.21h-1.44l3.12-8.07,1.5-.2,3.09,8.26h-1.54l-.79-2.21ZM176.41,47.49l-1.21,3.45h2.43l-1.22-3.45ZM185.79,46.12c2.5,0,4.1,1.37,4.1,3.8,0,2.73-2.07,4.3-4.76,4.3h-2.15v-8.1h2.81ZM184.43,53.15c.36.03.93.05,1.42.05,1.29,0,2.55-.74,2.55-3.02,0-2.15-1.39-3.02-3.07-3.02h-.89v6Z"/>
        <path class="cls-2" d="M109.62,77.54l-8.19-11.73v11.42h-2.5v-15.32h2.75l7.79,11.35v-11.35h2.47v15.17l-2.31.47ZM126.22,73.04h-6l-1.47,4.19h-2.72l5.91-15.26,2.85-.38,5.85,15.64h-2.91l-1.5-4.19ZM123.19,64.5l-2.28,6.54h4.6l-2.31-6.54ZM145.68,76.45c-1.13.63-3.19,1.09-4.91,1.09-4.41,0-7.63-2.66-7.63-7.82,0-4.78,3.19-8.13,8.13-8.13,1.91,0,3.57.31,4.28.66l-.66,2.16c-1-.34-2.6-.78-4.44-.78-2.19,0-4.47,1.31-4.47,5.69,0,4.63,2.91,6.13,5.6,6.13,1.41,0,2.85-.41,3.53-.81l.56,1.81ZM152.84,77.23h-2.75v-15.32h2.75v15.32ZM164.63,77.54c-4.13,0-7.01-2.78-7.01-7.66,0-5.22,3.44-8.29,8.29-8.29,4.13,0,7.01,2.81,7.01,7.69,0,5.19-3.44,8.26-8.29,8.26ZM164.82,63.62c-2.41,0-4.35,1.53-4.35,5.54,0,4.57,2.13,6.38,5.22,6.38,2.44,0,4.38-1.5,4.38-5.57,0-4.53-2.16-6.35-5.25-6.35ZM188.36,77.54l-8.19-11.73v11.42h-2.5v-15.32h2.75l7.79,11.35v-11.35h2.47v15.17l-2.31.47ZM204.96,73.04h-6l-1.47,4.19h-2.72l5.91-15.26,2.85-.38,5.85,15.64h-2.91l-1.5-4.19ZM201.93,64.5l-2.28,6.54h4.6l-2.31-6.54ZM213.46,61.9h2.75v13.32l6.69-.09-.28,2.1h-9.16v-15.32Z"/>
        <path class="cls-2" d="M101.9,85.06c2.5,0,4.1,1.37,4.1,3.8,0,2.73-2.07,4.3-4.76,4.3h-2.15v-8.1h2.81ZM100.55,92.08c.36.03.93.05,1.42.05,1.29,0,2.55-.74,2.55-3.02,0-2.15-1.39-3.02-3.07-3.02h-.89v6ZM108.91,85.06h5.07l-.13,1.07c-1.16-.02-2.33-.03-3.49-.05v2.41h3.22l-.15.98-3.07-.05v2.68l3.85-.05-.13,1.11h-5.17v-8.1Z"/>
        <path class="cls-2" d="M127.16,92.75c-.6.33-1.69.58-2.6.58-2.33,0-4.03-1.4-4.03-4.13,0-2.53,1.69-4.3,4.3-4.3,1.01,0,1.88.17,2.26.35l-.35,1.14c-.53-.18-1.37-.41-2.35-.41-1.16,0-2.36.69-2.36,3.01,0,2.45,1.54,3.24,2.96,3.24.74,0,1.5-.21,1.87-.43l.3.96ZM132.86,93.32c-2.18,0-3.7-1.47-3.7-4.05,0-2.76,1.82-4.38,4.38-4.38,2.18,0,3.7,1.49,3.7,4.07,0,2.74-1.82,4.36-4.38,4.36ZM132.96,85.97c-1.27,0-2.3.81-2.3,2.93,0,2.41,1.12,3.37,2.76,3.37,1.29,0,2.31-.79,2.31-2.94,0-2.4-1.14-3.36-2.78-3.36ZM140.17,85.06h1.45v7.04l3.54-.05-.15,1.11h-4.84v-8.1ZM150.74,93.32c-2.18,0-3.7-1.47-3.7-4.05,0-2.76,1.82-4.38,4.38-4.38,2.18,0,3.7,1.49,3.7,4.07,0,2.74-1.82,4.36-4.38,4.36ZM150.84,85.97c-1.27,0-2.3.81-2.3,2.93,0,2.41,1.12,3.37,2.76,3.37,1.29,0,2.31-.79,2.31-2.94,0-2.4-1.14-3.36-2.78-3.36ZM159.46,86.89l-.6,6.26h-1.36l1.01-8.1h1.54l2.51,6.46,2.43-6.46h1.54l.98,8.1h-1.42l-.63-6.28-2.28,6.05h-.07v.02l-1.26.2-2.4-6.25ZM170.53,85.06h2.63c1.77,0,2.74.69,2.74,1.92,0,.91-.58,1.52-1.31,1.9.91.15,1.9.68,1.9,1.88,0,1.45-1.34,2.4-3.6,2.4h-2.36v-8.1ZM174.5,87.41c0-.86-.46-1.36-1.83-1.36-.17,0-.43,0-.68.02v2.51c.3,0,.61.02.86.02,1.26,0,1.65-.48,1.65-1.19ZM175.05,90.93c0-.94-.76-1.45-2.05-1.45-.28,0-.66.02-1.01.02v2.63c.45.02.99.03,1.5.03.86,0,1.55-.3,1.55-1.22ZM180.83,93.16h-1.45v-8.1h1.45v8.1ZM188.75,90.94h-3.17l-.78,2.21h-1.44l3.12-8.07,1.5-.2,3.09,8.26h-1.54l-.79-2.21ZM187.14,86.43l-1.21,3.45h2.43l-1.22-3.45Z"/>
        <path class="cls-3" d="M31,65.42c0,4.05-2.49,6.07-5.14,6.07-2.49,0-4.44-1.79-4.44-4.44,0-2.1,1.32-3.74,2.96-3.66.93.04,1.52.58,1.52,1.36,0,.58-.43,1.09-1.01,1.09-.31,0-.47-.08-.55-.19.27.7,1.21.78,1.6.78,1.87,0,3.82-1.25,4.83-3.43.16.7.23,1.48.23,2.41ZM21.65,47.51c0-1.64,1.25-2.49,2.34-2.49.9,0,1.36.51,1.4,1.13.39-.39.82-.82,1.48-1.05-1.71-.93-2.8-2.92-2.49-4.87.16-.08.7-.23,1.64-.23s2.1.35,2.88.97c0-2.41,1.13-3.04,1.13-4.83,0-.43-.08-.9-.19-1.32,2.06.04,4.44,2.18,4.44,6.15,0,1.95-.78,4.21-2.02,5.61-2.49,0-4.67,3.5-7.71,3.5-1.64,0-2.88-1.09-2.88-2.57ZM23.6,65.15c0-.62.39-1.09.97-1.09.27,0,.43.08.58.19-.16-.27-.51-.35-.78-.35-1.28,0-2.34,1.32-2.34,3.15,0,2.18,1.64,3.82,3.82,3.82,2.8,0,4.28-2.18,4.59-4.91-.78,1.71-2.26,3.35-4.56,3.35-1.36,0-2.38-.93-2.76-2.18.62,1.09,1.48,1.56,2.76,1.56,1.83,0,3.5-1.6,4.09-3.43-1.17,1.09-2.34,1.79-4.05,1.79-1.48,0-2.34-.86-2.34-1.91ZM30.61,46.46c-.47-.04-1.75-.08-2.88.62-1.71,1.09-3.19,2.1-4.24.82,1.13.86,2.26-.19,4.05-1.32.93-.58,2.34-.62,3.04-.62-1.28-.66-2.8-1.75-3.58-2.69,1.21.74,2.49,1.6,3.85,2.3-.86-1.28-2.57-2.88-4.59-4.13,1.79.51,3.82,2.34,5.06,3.82-.43-1.67-.74-3.78-.58-5.49.27,1.83.7,3.78,1.17,5.33.58-3.31.19-6-.35-8.02,1.21,1.87,1.36,4.63.93,8.14.55-.78,1.21-2.61,1.21-4.24,0-2.84-1.09-4.71-2.8-5.41-.12-.04-.31-.12-.43-.12.08.23.12.58.12.9,0,1.48-1.09,2.38-1.09,4.63,0,.62.04,1.17.19,1.64-1.25-1.71-2.65-2.1-3.74-2.1-.39,0-.66.04-1.01.12-.08,1.25.47,3.39,3.27,4.56-2.49.39-2.49,1.95-3.66,1.95-.47,0-.86-.35-.86-.86,0-.43.35-.74.82-.66-.23-.08-.39-.08-.51-.08-1.09,0-1.71,1.05-1.71,1.99,0,1.17.93,2.02,2.26,2.02,2.1,0,4.05-2.14,6.07-3.08ZM31.15,74.53c0,3.04-1.17,4.67-2.57,6.23-1.01,1.17-2.18,2.41-2.96,4.71-1.25-.66-2.26-2.61-2.26-5.02,0-3.19,1.32-5.3,2.73-6.62,1.64-1.56,3.43-2.1,4.28-3.58.47,1.01.78,2.96.78,4.28ZM29.67,72.82c-2.18,2.34-3.74,5.14-4.44,9.27.08-4.52,1.79-7.36,3.93-9.73-3.58,1.91-5.18,4.91-5.18,8.1,0,1.95.7,3.35,1.32,4.05.78-1.64,1.87-3.11,2.8-4.13,1.17-1.48,2.34-2.88,2.34-5.84,0-.51,0-.74-.08-1.64-.66,3-2.1,5.69-3.82,7.63,1.25-2.49,2.53-4.83,3.12-7.71ZM29.36,49.22c0,1.87,2.57,3.43,2.57,7.4,0,3.58-2.1,6.85-4.83,8.26.16-.39.23-.86.23-1.25,0-2.73-1.56-5.45-1.56-8.29s1.25-5.41,3.66-6.58c-.08.16-.08.31-.08.47ZM37.03,87.61c-.47,1.09-1.83,1.71-3.08,1.71-1.32,0-2.65-.7-3.12-1.71-.23,1.32-1.09,2.65-1.09,3.47,0,.27,0,.43.16.58.08-.31.39-.7,1.01-.7.55,0,1.09.47,1.09,1.09,0,.86-.7,1.56-1.87,1.56-1.95,0-3.89-1.67-3.89-5.3,0-3.12,1.64-5.84,6.07-8.96,1.09,3.35,1.13,7.32,4.71,8.26ZM29.36,55.8c-.19-1.99-.43-3.78-.78-5.1-.31,1.09-.39,2.88-.39,3.66,0,1.79.23,3.89.62,6.85-.7-2.34-1.25-5.06-1.25-6.85,0-1.32.16-3.12.39-3.89-1.09,1.32-1.56,3.04-1.56,4.87,0,2.84,1.64,5.49,1.56,8.37,2.26-1.95,3.35-4.36,3.35-7.09,0-1.95-.78-3.58-2.18-5.92.31,1.17.74,3.85.78,5.1.04,1.13-.08,2.76-.23,3.54-.08-1.21-.19-2.41-.31-3.54ZM31.42,81.5c-1.79,2.41-2.84,5.8-3.23,8.33-.23-2.84.78-5.8,2.57-8.53-2.49,1.79-3.89,4.52-3.89,7.01,0,3.85,2.65,5.45,4.21,4.44-1.01.31-1.91-.39-1.91-1.64,0-1.6,1.6-2.88,1.6-7.16-.08,3.5,1.4,4.75,3.19,4.75.86,0,1.71-.43,2.06-.78-1.95-.74-3.08-2.8-3.78-6.46-.58,2.26.39,5.22,1.64,6.31-1.64-.55-2.65-3.54-2.45-6.27ZM41.63,104.2c-3.7,1.64-6.23,2.73-8.68,2.73-2.73,0-4.13-1.25-4.13-3.19v-3.7c0-1.25.9-2.06,2.41-2.06.62,0,1.17.16,1.56.31.74-.86,1.75-1.4,2.84-1.4,1.25,0,2.1.62,2.1,1.71,0,.62-.27,1.21-.86,1.48,1.28-.55,2.18-.97,3.58-1.6,3.74-1.67,9.97-4.01,14.37-4.01s10.63,2.34,14.37,4.01c1.4.62,2.3,1.05,3.58,1.6-.58-.27-.86-.86-.86-1.48,0-1.09.86-1.71,2.1-1.71,1.09,0,2.1.55,2.84,1.4.39-.16.93-.31,1.56-.31,1.52,0,2.41.82,2.41,2.06v3.7c0,1.95-1.4,3.19-4.13,3.19-2.45,0-4.98-1.09-8.68-2.73-4.75-2.1-8.49-3.74-13.2-3.74s-8.45,1.64-13.2,3.74ZM40.69,99.06c-3.27,1.48-5.84,2.57-8.22,2.57-1.83,0-2.57-.51-3.04-.97v3.08c0,1.56,1.21,2.57,3.5,2.57s4.75-1.05,8.45-2.69c4.98-2.22,8.72-3.78,13.43-3.78s8.45,1.56,13.43,3.78c3.7,1.64,6.23,2.69,8.45,2.69s3.5-1.01,3.5-2.57v-3.08c-.47.47-1.21.97-3.04.97-2.38,0-4.95-1.09-8.22-2.57-3.97-1.79-10.12-3.97-14.13-3.97s-10.16,2.18-14.13,3.97ZM29.59,99.57c0,.97,1.48,1.52,2.88,1.52,1.25,0,2.96-.39,4.24-.93-1.01.27-2.1-.19-3.08-.74-.9-.51-1.71-.9-2.49-.9-1.01,0-1.56.55-1.56,1.05ZM76.55,56.97c0,3.27,1.01,5.3,1.01,8.64-2.1,0-2.73.62-2.73,1.87s.82,1.95,2.8,1.95c-.31,11.8-3.74,16.47-8.41,19.2-4.13,2.26-9.27,3.08-14.41,5.8-5.14-2.73-10.28-3.54-14.41-5.8-4.67-2.73-8.1-7.4-8.41-19.2,1.99,0,2.8-.7,2.8-1.95s-.62-1.87-2.73-1.87c0-3.35,1.01-5.37,1.01-8.64,0-1.87-.55-4.59-2.57-7.32l.86-1.64c.93.31,1.91.08,2.53-.55.55-.55.78-1.44.51-2.41l1.71-.93c2.8,2.65,5.96,4.21,9.27,4.21,1.64,0,4.05-.31,6.54-1.71l2.88,3.97,2.88-3.97c2.49,1.4,4.91,1.71,6.54,1.71,3.31,0,6.46-1.56,9.27-4.21l1.71.93c-.27.97-.04,1.87.51,2.41.62.62,1.6.86,2.53.55l.86,1.64c-2.02,2.73-2.57,5.45-2.57,7.32ZM30.76,102.53l.47.12v2.22c-.23-.08-.35-.12-.47-.19v-2.14ZM35.47,67.17h12.97c.08-.55.16-1.09.16-1.71,0-.74-.08-1.52-.39-2.3l.93-1.13c.31.04.66.08,1.01.08,1.52,0,3.19-.43,4.28-1.25v-9.66l-2.65-3.74c-2.02,1.01-4.28,1.48-6.39,1.48-3.5,0-6.62-1.6-9.35-4.09l-.97.51c.12.97-.19,1.91-.78,2.49-.66.66-1.64.97-2.61.78l-.47.93c1.79,2.57,2.49,5.3,2.49,7.24,0,2.49-.93,6.15-.93,8.18,1.64.16,2.61.9,2.69,2.18ZM32.71,105.17l-.39-.04-.31-1.05-.16-.7h-.08l.16.93v.74l-.39-.08v-2.26l.39.04.31.93.16.7h.08l-.16-.93v-.7h.39v2.41ZM37.69,89.72c3.19,0,6.11,1.99,11.18,3.5-2.26,1.87-4.59,2.8-6.85,2.8-3.89,0-6.39-2.8-7.9-2.38.47.08.74.43.74.9,0,.58-.51.93-1.13.93-.78,0-1.48-.58-1.48-1.6,0-2.14,2.34-4.17,5.45-4.17ZM48.25,69.12c0-.51.08-.97.12-1.32h-12.89c-.08,1.13-.82,2.02-2.76,2.18.23,10.67,3.82,15.69,8.1,18.11,4.05,2.26,9.42,3.23,13.63,5.33v-17.37c-5.3-1.79-6.19-3.89-6.19-6.93ZM37.46,91.59c2.65,0,6.11,1.56,9.23,1.56-2.65-.82-6.35-2.88-8.99-2.88-1.95,0-4.83,1.17-4.83,3.66,0,.12.04.35.08.47.08-.93.7-1.32,1.71-1.32,1.71,0,4.13,2.38,7.36,2.38,1.28,0,2.65-.31,4.13-1.01-2.65.08-5.57.23-8.68-1.48,1.48.62,3.82.93,5.45.93.47,0,2.76-.04,3.23-.12-4.75-.31-7.59-2.34-11.02-1.79.55-.23,1.48-.39,2.34-.39ZM33.25,103.11l-.39.04v-.39c.27,0,.93-.08,1.28-.16v.43s-.35.04-.43.04v2.06l-.47.04v-2.06ZM35.63,97.43c-.86,0-1.83.51-2.3,1.13.82.47,1.91,1.09,2.8,1.09.58,0,.97-.39.97-1.05,0-.7-.62-1.17-1.48-1.17ZM34.31,102.57c.39-.08.7-.16,1.01-.23v.39l-.55.08v.7l.47-.16v.39l-.47.08v.82c.12-.04.39-.12.55-.19v.39c-.27.08-.74.19-1.01.23v-2.49ZM42.01,44c0,.93-.55,1.87-1.09,2.34-.16-1.01-1.79-2.34-3.82-2.65-1.4-1.09-2.14-3.12-2.14-4.83,0-3.31,2.45-4.95,3.58-7.52-.39.23-.9.27-1.28.27-1.25,0-2.26-.9-2.26-2.22,0-1.64,1.32-2.92,3.27-2.92,2.34,0,4.83,2.02,4.83,6.78,0,2.41-.7,5.84-2.96,8.41,1.25.31,1.87,1.32,1.87,2.34ZM36.6,42.25c-.31-5.45,2.22-6.46,3.23-9.93-.58,3.66-2.88,4.67-2.53,9.89,3.93-6.58,3.97-10.08,3.58-12.38,1.05,2.34.55,6.35-3,12.81,1.25-.23,2.26.16,2.69,1.09-.7-.55-1.67-.7-2.53-.31,1.6.35,2.38.97,3,1.95.23-.27.43-.74.43-1.36,0-1.01-.7-1.79-2.1-2.1,2.34-2.8,3.19-5.92,3.19-8.64,0-4.36-2.26-6.23-4.28-6.23-1.64,0-2.65.97-2.65,2.38,0,1.01.74,1.75,1.64,1.75.55,0,1.09-.08,1.4-.39-.86.08-1.25-.43-1.25-.93,0-.47.31-.93.93-.93.58,0,1.01.47,1.01,1.17,0,2.8-3.82,5.14-3.82,8.8,0,1.01.31,2.45,1.05,3.39ZM35.55,104.75v-2.49l.31-.08c.55-.16.86.12.86.51,0,.31-.16.58-.39.74l.66.86-.47.16-.35-.55-.08-.31-.16.04v1.01l-.39.12ZM36.33,102.8c0-.23-.16-.39-.39-.31v.78c.31-.08.39-.31.39-.47ZM43.3,54.28c-.47,0-.86-.35-.93-.66-.86,0-1.71.16-2.26.27l2.02,6.31h.55c0,.78-.93,1.48-2.96,1.48s-2.8-.7-2.8-1.48h.47l1.87-6.07-.35.12-.27-.82c1.25-.39,2.41-.62,3.74-.7.16-.39.55-.62.93-.62s.78.23.9.62c1.32.08,2.53.31,3.78.7l-.27.82-.35-.12,1.87,6.07h.47c0,.78-.86,1.48-2.8,1.48s-2.96-.7-2.96-1.48h.55l2.02-6.31c-.51-.12-1.36-.27-2.26-.27-.08.31-.47.66-.93.66ZM37.34,102.8c0-.19.12-.31.31-.31s.31.12.31.31-.12.31-.31.31-.31-.12-.31-.31ZM39.48,60.2v-5.57l-1.6,5.57h1.6ZM38.51,103.7l.39-2.69.7-.31.39,2.41-.39.16-.08-.55-.47.19-.08.58-.47.19ZM48.09,81.77c-.23.16-.62.31-1.21.31-1.21,0-1.95-.66-1.95-2.26,0-1.44,0-1.91.16-4.59h-2.41c0,1.44.04,2.65-.16,3.97-.19,1.28-.7,2.14-1.79,3.08l-.9-.97c.78-.58,1.32-.97,1.52-2.26.19-1.25.16-2.41.16-3.82-1.32,0-1.75.58-1.75,1.79l-1.21-.31c.23-1.95,1.28-2.57,3.08-2.57h6.35v1.09h-1.75c-.16,2.88-.12,3.15-.12,4.28s.51,1.4,1.13,1.4c.39,0,.58-.08.86-.19v1.05ZM39.44,102.33l-.08-.55-.08-.58-.08.04-.16,1.25.39-.16ZM39.95,54.63v5.57h1.64l-1.64-5.57ZM40.54,100.27v1.87c0,.16.08.23.16.23.16,0,.31-.16.31-.47v-1.87l.47-.19v1.83c0,.78-.47,1.17-.86,1.17-.31,0-.47-.23-.47-.55v-1.87l.39-.16ZM41.86,99.68l.39-.16v2.22l.47-.23v.43l-.86.35v-2.61ZM44.82,40.26c0,.7-.55,1.25-1.4,1.25-.7,0-1.17-.47-1.25-1.25.39.31,1.25.08,1.4.7.08-.62.86-.62,1.17-1.09.08.16.08.23.08.39ZM45.29,41.51c0,.86-.78,1.32-1.79,1.32-.78,0-1.25-.31-1.32-1.25.47.47,1.56.16,1.71.86,0-.78,1.09-.86,1.32-1.32.08.08.08.23.08.39ZM43.42,40.19c-.62,0-1.09-.47-1.09-.93,0-.16,0-.23.08-.39.31.39,1.01.23,1.09,1.01-.08-.78.86-.93,1.01-1.09.04.78-.39,1.4-1.09,1.4ZM45.99,42.76c0,1.01-1.09,1.64-2.02,1.64-.7,0-1.17-.39-1.32-1.09.12.12.39.08,1.17.08.31,0,.7,0,.86.39v-.31c0-.78,1.09-1.01,1.17-1.48.08.31.16.55.16.78ZM51.2,43.77c.93,0,1.32.55,1.48,1.87-1.17,0-4.59,1.79-7.01,1.79-1.79,0-2.8-.62-2.96-2.96.7.55,1.75.7,2.73.7,2.18,0,4.63-1.4,5.76-1.4ZM43.42,38.94c-.23-.08-.55-.39-.55-.86s.31-1.01.7-1.4c0,.62.31,1.01.31,1.48,0,.39-.31.7-.47.78ZM42.87,101.86l.31-2.73.62-.23.55,2.34-.39.16-.08-.47-.51.19-.04.55-.47.19ZM43.42,100.7l.39-.16-.16-.58-.08-.58-.08.04v.58l-.08.7ZM44.27,31.54c.39,0,.86-.23,1.09-1.25-.08.62-.08,1.25-.08,1.79,0,1.56.16,2.88.23,3.43.08.23.08.55.08.78,0,.86-.31,1.25-.7,1.4-.47-1.64-.7-3.58-.7-5.06,0-.39,0-.78.08-1.09ZM44.31,45.52v1.17c.16.08.47.16.7.16v-.23h-.31v-1.05l-.39-.04ZM60.63,23.83c1.95,0,4.36,1.87,4.67,7.01-.7,0-.93-.55-1.01-1.4-.47-3.27-2.18-4.83-3.43-4.83-2.41,0-.47,3.82-2.96,4.36,0,.62-.16,1.4-.47,1.4-.39,0-.55-.7-.7-1.25,0,.86-.23,1.56-.55,1.56-.23,0-.47-.7-.62-1.32,0,.78-.39,1.56-.78,1.56-.31,0-.7-.78-.7-1.56-.16.62-.39,1.32-.62,1.32-.31,0-.55-.7-.55-1.56-.16.55-.31,1.25-.7,1.25-.31,0-.47-.78-.47-1.4-2.49-.55-.55-4.36-2.96-4.36-1.25,0-2.96,1.56-3.43,4.83-.08.86-.31,1.4-1.01,1.4.31-5.14,2.73-7.01,4.67-7.01,2.88,0,1.4,3.58,2.73,3.58.55,0,1.01-.62,1.48-1.4-.08.16-.08.31-.08.47,0,.62.62,1.01,1.64,1.01,1.09,0,1.71-.39,1.71-1.01,0-.16,0-.31-.08-.47.47.78.86,1.4,1.48,1.4,1.25,0-.16-3.58,2.73-3.58ZM44.51,100.58c.31.08.58,0,.58-.23,0-.47-.7-.55-.7-1.25,0-.47.43-.78.97-.7l.08.43c-.31-.08-.58-.04-.58.27,0,.39.74.51.74,1.21,0,.55-.55.86-1.01.7l-.08-.43ZM45.01,60.2h1.64v-5.57l-1.64,5.57ZM45.05,38.32c.39-.16.7-.55.7-1.64.47,2.1.93,3.5,1.48,4.83.39,1.01.78,1.64.78,1.95,0,.23-.08.31-.23.39-1.17-1.4-2.1-3.5-2.73-5.53ZM45.17,45.6v1.25h.39v-1.25h-.39ZM45.79,45.6v1.28l.51-.04c.31-.04.47-.19.47-.43s-.16-.27-.31-.27c.16,0,.27-.16.27-.31,0-.23-.19-.31-.51-.27l-.43.04ZM47.08,29.28c-.12.93-.55,1.32-1.17,1.32.08-1.4.47-2.73.86-3.58.55-1.17,1.48-1.87,1.95-1.87.16,0,.31.08.31.23s-.23.23-.55.55c-.62.62-1.21,1.79-1.4,3.35ZM45.91,31.23c.39,0,.78-.23,1.01-1.17-.08.62-.08,1.17-.08,1.71v1.56c0,.55-.08,1.25-.78,1.32-.16-1.25-.16-2.41-.16-3.43ZM46.14,35.28c.47,0,.86-.39.86-1.32.39,3.5,1.32,5.45,1.79,6.78.23.7.39,1.25.39,1.64,0,.23-.08.39-.31.47-1.17-1.87-2.34-4.75-2.73-7.55ZM46.38,45.91c0,.12-.08.19-.19.19v-.39c.12,0,.19.08.19.19ZM46.38,46.49c0,.16-.08.23-.19.23v-.47c.12,0,.19.08.19.23ZM46.22,99.14c0-.19.12-.31.31-.31s.31.12.31.31-.12.31-.31.31-.31-.12-.31-.31ZM46.92,46.73l.78-.16v-.23l-.39.08v-.35l.35-.04v-.23l-.35.08v-.31l.35-.04v-.23l-.74.16v1.28ZM48.75,60.2l-1.64-5.57v5.57h1.64ZM47.47,31.15c.39,0,.78-.23,1.01-1.25-.08.7-.16,1.25-.16,1.64,0,.55.08,1.25.08,1.64,0,.62-.08,1.25-.78,1.4-.16-.86-.23-1.64-.23-2.41,0-.39,0-.7.08-1.01ZM48.56,29.28c-.16.93-.39,1.25-1.01,1.25.16-2.02.55-3.12,1.25-4.13.16-.23.39-.47.62-.47.08,0,.23.08.23.23s-.08.23-.16.39c-.55.7-.78,1.87-.93,2.73ZM47.54,100.07l.43-2.61.66-.19.39,2.38-.39.12-.08-.47-.43.12-.08.51-.51.16ZM47.62,35.12c.47-.08.78-.47.86-1.4.23,2.26,1.01,4.52,1.56,6,.23.62.31,1.09.31,1.48,0,.23-.08.39-.23.55-1.17-1.64-2.18-4.75-2.49-6.62ZM48.91,46.22l-.31-.47c.12-.04.19-.19.19-.31,0-.23-.19-.43-.51-.35l-.43.12v1.32l.39-.12v-.51l.23.43.43-.12ZM48.17,98.98l.31-.08-.08-.7-.04-.51-.08.04-.04.51-.08.74ZM48.4,45.48c0,.16-.04.23-.16.27v-.47c.12-.04.16.08.16.19ZM48.79,45.21l.27-.12v1.09l.39-.12v-1.09l.23-.04v-.27l-.9.27v.27ZM50.08,62.73c-.23,0-.43-.04-.66-.08l-.51.62c.16.7.31,1.32.31,2.18,0,1.09-.31,2.57-.31,3.5,0,2.88.7,4.75,5.92,6.46,5.22-1.71,5.92-3.58,5.92-6.46,0-.93-.31-2.41-.31-3.5,0-.86.16-1.48.31-2.18l-.51-.62c-.23.04-.43.08-.66.08-1.64,0-3.27-.31-4.75-1.32-1.48,1.01-3.12,1.32-4.75,1.32ZM48.95,30.53c.47,0,.86-.39,1.01-1.09-.08.62-.08,1.09-.08,1.56,0,.7.08,1.32.08,1.71,0,.7-.47,1.17-.93,1.17-.08-.78-.08-1.4-.08-2.02v-1.32ZM49.65,27.65c.16,0,.31.23.31.78,0,.7-.23,1.48-.93,1.48.23-1.95.39-2.26.62-2.26ZM49.1,34.58c.39-.08.86-.31.93-1.25.16,2.26.78,4.21,1.17,5.61.23.7.39,1.17.39,1.56,0,.16-.08.39-.23.47-1.09-1.64-1.95-4.52-2.26-6.39ZM50.35,99.33c-.55.23-1.17.04-1.17-1.13,0-.86.47-1.4,1.09-1.32v.39c-.47,0-.66.31-.66.93,0,.7.35.93.74.78v.35ZM52.29,101.48c1.01,0,1.71.31,2.49.78.78-.47,1.56-.78,2.57-.78,1.87,0,3.04.93,3.04,2.18,0,1.01-.86,1.64-1.71,1.64-.7,0-1.25-.31-1.25-.93,0-.39.23-.7.7-.7s.86.55.55,1.09c.62,0,1.09-.47,1.09-1.13,0-.97-.93-1.6-2.26-1.6-.93,0-1.87.31-2.26.62.78.78,1.32,1.56,1.32,2.49,0,1.25-.93,1.95-1.79,1.95s-1.79-.7-1.79-1.95c0-.93.55-1.71,1.32-2.49-.39-.31-1.25-.62-2.18-.62-1.4,0-2.34.62-2.34,1.6,0,.66.47,1.13,1.09,1.13-.31-.55.08-1.09.55-1.09s.7.31.7.7c0,.62-.55.93-1.25.93-.86,0-1.71-.62-1.71-1.64,0-1.25,1.17-2.18,3.12-2.18ZM49.88,44.59l-.27,1.44.31-.12.04-.23.27-.12.04.19.39-.12-.31-1.21-.47.16ZM50.74,70.13c-.47.19-1.01-.23-1.01-.93,0-.31.04-.62.19-3.43h.12v2.65c.55.23,1.09.7,1.09,1.25,0,.23-.16.35-.39.47ZM51.67,70.99c-.74.55-1.25.39-1.79-.23.55,0,1.09-.55,1.64-.08-.39-.39,0-.86.08-1.25l-.78-2.26h.12l1.05,2.26c.31.55.39,1.05-.31,1.56ZM50.08,44.74l.12.62-.19.08.08-.7ZM51.28,30.3c0,1.01.08,1.79.08,2.26,0,.7-.39,1.17-.7,1.17-.16-1.01-.23-1.87-.23-2.8,0-1.17.16-1.4.39-1.4s.47.23.47.78ZM51.59,43.3l.08-.55.47-.78-.86.7-.23.39h-.16l.08-.55.62-.55-.78.23-.16.23h-.23l.31-.47,1.56-.62.23-1.71c.08.08.16.08.31.08.23,0,.31,0,.39-.08l-.39,1.71,1.01.62.16.62h-.16l-.39-.39-.7-.23-.7.86-.31.47h-.16ZM50.5,99.29l.31-2.57.7-.16.47,2.41-.47.08-.08-.55-.43.12-.08.55-.43.12ZM50.66,34.27c.31,0,.7-.31.78-1.09.08.78.39,2.1.39,2.65s-.23,1.01-.55,1.01c-.31-.7-.47-1.79-.62-2.57ZM51.05,45.52c.43-.16.62-.35.62-.78,0-.39-.23-.55-.62-.47l-.39.08v1.28l.39-.12ZM52.76,71.77c-.78.86-1.4.7-1.87.08.47,0,1.09-.78,1.56-.39-.47-.39.31-1.09.31-1.56.62.55.62,1.17,0,1.87ZM51.28,44.82c0,.35-.08.43-.23.51v-.9c.16,0,.23,0,.23.39ZM51.36,98.13l-.16-1.17h-.08l-.08,1.25.31-.08ZM52.92,74.18l1.56-1.17-.62-.47c-.55.55-1.09.7-1.71.23.47-.16.93-1.01,1.48-.55-.47-.55.16-1.17.08-1.71.55.31.78,1.25.31,1.71l.62.47v-2.57c-.78-.08-1.64-.62-1.79-1.48l-1.64-2.41h.16l1.79,2.26c.62.23,1.67.47,1.67,1.01,0-.55,1.05-.78,1.67-1.01l1.79-2.26h.16l-1.64,2.41c-.16.86-1.01,1.4-1.79,1.48v2.57l.62-.47c-.47-.47-.23-1.4.31-1.71-.08.55.55,1.17.08,1.71.55-.47.93.39,1.48.55-.62.47-1.17.31-1.71-.23l-.62.47,1.64,1.17-.47.16-1.32-.93v1.4l-.19.08-.19-.08v-1.4l-1.25.93-.47-.16ZM52.53,37.38c0,.31.16.62.47.62.23,0,.47-.23.62-.55.31.31.47.86.47,1.87-.39-.08-.7-.47-.7-.93-.08.62-.31.93-.55.93-.16,0-.23-.23-.23-.55v-.55c-.08.31-.55.7-.93.55.23-.7.55-1.25.86-1.4ZM54.83,68.57c-.9,0-1.6-.55-1.75-1.25l-1.4-2.02h.16l1.56,2.02c.55.23,1.32.47,1.44.86.16-.39.9-.62,1.44-.86l1.56-2.02h.16l-1.4,2.1c-.16.62-.9,1.17-1.75,1.17ZM53.15,35.59c.86,0,1.09.31,1.09,1.48v.47c-.39,0-.62-.39-.7-.78-.08.55-.31.78-.47.78-.23,0-.31-.16-.31-.55v-.47c-.31.55-.62.55-.86.55.31-1.17.62-1.48,1.25-1.48ZM54.79,31.62c.47,0,.78-.47.78-1.09.16.62.47.86.7.86.31,0,.62-.55.62-1.17.08.55.39,1.01.78,1.01,0,.86-.16,1.32-.55,1.32-.23,0-.31-.39-.47-1.01,0,.62-.31,1.25-.62,1.25-.23,0-.39-.23-.55-.93-.08.7-.39,1.25-.7,1.25-.23,0-.62-.55-.62-1.25-.16.7-.31.93-.55.93-.31,0-.62-.62-.62-1.25-.16.62-.23,1.01-.47,1.01-.39,0-.55-.47-.55-1.32.31,0,.7-.47.78-1.01,0,.62.31,1.17.62,1.17.23,0,.55-.23.7-.86,0,.62.31,1.09.7,1.09ZM54.83,67.33c-.82,0-1.52-.47-1.67-1.09l-1.09-1.87h.16l1.09,1.64c.55.23,1.4.47,1.52.93.16-.47.97-.7,1.52-.93l1.01-1.64h.16l-1.01,1.87c-.23.62-.93,1.09-1.67,1.09ZM52.22,96.45l.27-.04c.62-.08,1.05.23,1.05,1.17s-.47,1.25-1.01,1.32l-.31.04v-2.49ZM54.79,33.96c.39,0,.78-.55.78-1.17.16.62.31.93.62.93s.55-.55.55-1.25c.47.7.62,1.4.62,1.87,0,.55-.16.7-.31.7-.23,0-.55-.31-.62-1.01,0,.86-.23,1.25-.55,1.25-.16,0-.39-.31-.55-.86,0,.7-.23,1.17-.55,1.17-.23,0-.47-.47-.47-1.17-.16.55-.39.86-.55.86-.31,0-.55-.39-.55-1.25-.08.7-.39,1.01-.62,1.01-.16,0-.31-.16-.31-.7,0-.47.16-1.17.62-1.87,0,.7.23,1.25.55,1.25s.47-.31.62-.93c0,.62.39,1.17.7,1.17ZM55.6,24.88c0,.35.12.66.12.74,0,.31-.47.55-.93.55-.31,0-.78-.23-.78-.47s.27-.78.27-1.25c0-.08,0-.16-.08-.31.16.12.35.16.55.16s.47-.08.55-.23c-.93.27-1.28-.27-1.36-.74-.35.16-.7.04-.78-.23-.16.08-.35.12-.51.23-.16-.66.08-.82.9-.93-.12-.12-.16-.27-.16-.39,0-.39.43-.58,1.4-.58.43,0,.7.16.62.35,0,.16-.08.16-.08.23.51.16.66.58.66,1.01,0,.78-.39.93-.39,1.87ZM53.15,97.66c0-.62-.23-.93-.55-.86v1.71c.31,0,.55-.39.55-.86ZM54.83,66.08c-.82,0-1.28-.55-1.44-1.09l-.62-1.79h.12l.66,1.56c.55.23,1.28.47,1.28,1.01,0-.55.74-.78,1.21-1.01l.74-1.56h.12l-.62,1.79c-.31.62-.7,1.09-1.44,1.09ZM52.88,46.61c0-.31.27-.58.9-.9-.16.31-.31.47-.55.7.47-.31.39-.23.62-.39-.31.7-.58.78-.74.78s-.23-.08-.23-.19ZM56.11,45.56c-.39-.08-.93-.16-1.32-.16-.31,0-.86.08-1.25.16-.16-.47-.39-1.17-.39-1.64,0-.62.47-.86,1.64-.86,1.25,0,1.71.23,1.71.86,0,.47-.23,1.17-.39,1.64ZM53.42,47.31c0-.31.23-.7.78-1.25-.16.47-.23.62-.39,1.09.23-.39.39-.55.55-.78-.08,1.09-.43,1.28-.66,1.28-.16,0-.27-.12-.27-.35ZM55.95,105.14c0-.86-.55-1.56-1.17-2.1-.62.55-1.17,1.25-1.17,2.1,0,.93.62,1.32,1.17,1.32s1.17-.39,1.17-1.32ZM53.85,98.83v-2.57l.93-.04v.39l-.55.04v.66l.47-.04v.39h-.47v.78l.55-.04v.39l-.93.04ZM54.79,48.99c-.31,0-.55-.16-.55-.7,0-.39.08-.74.31-1.44.08.31.23.62.23,1.09,0-.47.16-.78.23-1.09.23.7.31,1.05.31,1.44,0,.55-.23.7-.55.7ZM54.83,64.91c-.27,0-.58-.31-.58-.62,0-.39.19-.62.43-1.17l.08-1.48h.16l.08,1.48c.23.55.43.78.43,1.17,0,.31-.31.62-.58.62ZM54.63,44.43v.43h.39v-.43l.31-.82h-.23l-.19.58-.19-.58h-.39l.31.82ZM54.79,22.66c.16,0,.27-.08.27-.23s-.12-.23-.27-.23-.27.08-.27.23.12.23.27.23ZM55.72,97.66l-.16-.78h-.08l.08,1.09v.82h-.39v-2.57l.47.04.31,1.01.04.62h.04l.08-.62.31-.93.47.04v2.53l-.39-.04v-.82l.08-1.09h-.08l-.16.7-.16.62h-.31l-.16-.62ZM77.96,48.64c-.97.19-1.95-.12-2.61-.78-.58-.58-.9-1.52-.78-2.49l-.97-.51c-2.73,2.49-5.84,4.09-9.35,4.09-2.1,0-4.36-.47-6.39-1.48l-2.65,3.74v9.66c1.09.82,2.76,1.25,4.28,1.25.35,0,.7-.04,1.01-.08l.93,1.13c-.31.78-.39,1.56-.39,2.3,0,.62.08,1.17.16,1.71h12.97c.08-1.28,1.05-2.02,2.69-2.18,0-2.02-.93-5.69-.93-8.18,0-1.95.7-4.67,2.49-7.24l-.47-.93ZM55.88,47.66c-.23,0-.58-.19-.66-1.28.16.23.31.39.55.78-.16-.47-.23-.62-.39-1.09.55.55.78.93.78,1.25,0,.23-.12.35-.27.35ZM55.21,93.42c4.21-2.1,9.58-3.08,13.63-5.33,4.28-2.41,7.87-7.44,8.1-18.11-1.95-.16-2.69-1.05-2.76-2.18h-12.89c.04.35.12.82.12,1.32,0,3.04-.9,5.14-6.19,6.93v17.37ZM56.89,36.53v.47c0,.39-.08.55-.31.55-.16,0-.39-.23-.55-.78,0,.39-.23.78-.62.78v-.47c0-1.17.23-1.48,1.09-1.48.62,0,.93.31,1.25,1.48-.23,0-.55,0-.86-.55ZM57.05,38.24v.55c0,.31-.08.55-.23.55-.23,0-.47-.31-.55-.93-.08.47-.39.86-.7.93,0-1.01.08-1.56.39-1.79.16.39.47.47.7.47.31,0,.55-.23.55-.55.31.23.55.62.7,1.32-.31.16-.78-.23-.86-.55ZM57.9,43.3l-.31-.47-.7-.86-.7.23-.39.39h-.16l.16-.62,1.01-.62-.39-1.71c.08.08.16.08.39.08.16,0,.23,0,.31-.08l.16,1.71,1.64.62.23.47h-.16l-.16-.23-.78-.23.62.55.08.55h-.16l-.23-.39-.86-.7.47.78.08.55h-.16ZM56.46,46.81c-.16,0-.43-.08-.74-.78.23.16.16.08.62.39-.23-.23-.39-.39-.55-.7.62.31.9.58.9.9,0,.12-.08.19-.23.19ZM56.89,71.84c-.62-.7-.62-1.32,0-1.95,0,.55.78,1.17.31,1.64.47-.47,1.09.39,1.56.39-.47.55-1.09.78-1.87-.08ZM58.45,43.85c1.09,0,3.54,1.32,5.76,1.32,1.32,0,2.02-.16,2.73-.7-.16,2.34-1.17,2.96-2.96,2.96-2.41,0-5.84-1.71-7.01-1.71.16-1.32.55-1.87,1.48-1.87ZM57.2,96.41l.39.08v2.49l-.39-.04v-2.53ZM57.9,70.99c-.62-.43-.55-1.01-.23-1.48l1.05-2.26h.12l-.78,2.18c.08.39.39.86.08,1.25.55-.39,1.01.16,1.64.16-.55.55-1.05.7-1.87.16ZM59.77,99.41l-1.01-.23v-.51l-.43-.08-.16.51-.43-.08.78-2.34c.31.04.93.19,1.25.27v.39l-.62-.16v.62l.55.08v.39l-.55-.12v.74l.62.12v.39ZM58.99,34.27c-.16.78-.31,1.87-.62,2.57-.31,0-.55-.47-.55-1.01s.31-1.87.39-2.65c0,.78.47,1.09.78,1.09ZM60.55,34.58c-.31,1.87-1.17,4.75-2.26,6.39-.16-.08-.23-.31-.23-.47,0-.39.16-.86.39-1.56.39-1.4,1.01-3.35,1.17-5.61.08.93.55,1.17.93,1.25ZM58.64,45.56c.31.08.58-.12.58-.51s-.12-.74-.55-.82c-.31-.04-.55.19-.55.62,0,.35.16.62.51.7ZM58.37,30.3c0-.55.23-.78.47-.78s.31.23.31,1.4c0,.93,0,1.79-.16,2.8-.31,0-.7-.47-.7-1.17,0-.47.08-1.25.08-2.26ZM58.41,98.24l.35.04v-.74l.04-.47h-.04l-.12.47-.23.7ZM58.68,45.4c-.16-.04-.16-.27-.16-.51,0-.31,0-.55.16-.51.16.04.16.27.16.55s0,.51-.16.47ZM58.91,70.21c-.23-.08-.39-.31-.39-.55,0-.47.55-.93,1.09-1.25v-2.57h.12c.16,2.73.19,3.04.19,3.35,0,.7-.55,1.17-1.01,1.01ZM62.03,35.12c-.31,1.87-1.32,4.98-2.49,6.62-.16-.16-.23-.31-.23-.55,0-.39.08-.86.31-1.48.55-1.48,1.32-3.74,1.56-6,.08.93.39,1.32.86,1.4ZM60.43,46.14l-.31-.74c.16-.04.23-.16.23-.31,0-.23-.16-.39-.55-.51l-.39-.12v1.32l.39.12v-.51l.19.58.43.16ZM60,27.65c.23,0,.39.31.62,2.26-.7,0-.93-.78-.93-1.48,0-.55.08-.78.31-.78ZM60.71,30.53v1.32c0,.62,0,1.25-.08,2.02-.47,0-.93-.47-.93-1.17,0-.39.08-1.01.08-1.71,0-.47,0-.93-.08-1.56.16.7.55,1.09,1.01,1.09ZM60,45.09c0,.16-.08.23-.19.19v-.51c.16.04.19.16.19.31ZM61.09,29.28c-.16-.86-.39-2.02-.93-2.73-.08-.16-.16-.23-.16-.39s.16-.23.23-.23c.23,0,.47.23.62.47.7,1.01,1.09,2.1,1.25,4.13-.62,0-.86-.31-1.01-1.25ZM63.51,35.28c-.39,2.8-1.56,5.68-2.73,7.55-.23-.08-.39-.23-.39-.47,0-.39.23-.93.47-1.64.47-1.32,1.4-3.27,1.79-6.78,0,.93.39,1.32.86,1.32ZM60.39,98.44c0-.19.12-.31.31-.31s.31.12.31.31-.12.31-.31.31-.31-.12-.31-.31ZM60.94,46.3c.31.08.66-.04.66-.47,0-.39-.16-.7-.62-.86l-.43-.16v1.36l.39.12ZM62.57,29.28c-.19-1.56-.78-2.73-1.4-3.35-.31-.31-.55-.39-.55-.55s.16-.23.31-.23c.47,0,1.32.7,1.95,1.87.39.86.78,2.18.86,3.58-.62,0-1.05-.39-1.17-1.32ZM75.89,95.48c-.62,0-1.13-.35-1.13-.93,0-.47.27-.82.74-.9-1.52-.43-4.01,2.38-7.9,2.38-2.26,0-4.59-.93-6.85-2.8,5.06-1.52,7.98-3.5,11.18-3.5s5.45,2.02,5.45,4.17c0,1.01-.7,1.6-1.48,1.6ZM61.21,45.75c0,.31-.12.39-.27.35v-.93c.16.04.27.16.27.58ZM62.19,31.15c.08.31.08.62.08,1.01,0,.78-.08,1.56-.23,2.41-.7-.16-.78-.78-.78-1.4,0-.39.08-1.09.08-1.64,0-.39-.08-.93-.16-1.64.23,1.01.62,1.25,1.01,1.25ZM64.95,61.06v-2.88c-2.1-.47-3.74-1.01-3.74-2.41h8.26c0,1.4-1.56,1.95-3.74,2.41v3.04l-.78-.16ZM64.6,38.32c-.62,2.02-1.56,4.13-2.73,5.53-.16-.08-.23-.16-.23-.39,0-.31.39-.93.78-1.95.47-1.32,1.01-2.73,1.48-4.83,0,1.09.23,1.48.7,1.64ZM61.76,46.49l.78.19v-.23l-.39-.08v-.31l.31.08v-.23l-.31-.04v-.35l.35.12v-.23l-.74-.19v1.28ZM62.73,100.31h-.08c-.62,0-.86-.55-.86-1.4,0-.7.23-1.25.7-1.25.55,0,.78.55.78,1.48,0,.47-.08.78-.39.93l.23-.08.31.08v.47l-.7-.23ZM64.37,71.26c1.01,1.79,2.34,2.26,3.82,2.26.86,0,1.56-.39,2.26-.39.62,0,1.09.47,1.09,1.01,0,.31-.16.62-.23.78l-6.07,9.5h-1.48l-.31-.78c.23-.16.39-.39.39-.62,0-1.4-1.64-2.57-1.64-5.37,0-2.49,1.01-3.43,1.01-4.44,0-.31-.08-.7-.31-1.09l.62-.86h.86ZM62.19,98.98c0,.47.08.93.39.93.23,0,.31-.39.31-.93,0-.47-.08-.9-.35-.9s-.35.35-.35.9ZM64.95,62.3c-1.79-.31-2.26-.78-2.26-1.28s.31-1.01,1.71-1.4v.9c-.47.12-.62.23-.62.47s.19.35,1.17.55l.78.16c2.1.43,2.69,1.21,2.92,1.6.08.16.12.35.12.43,0,.23-.08.47-.16.47-.47,0,.08-1.09-2.88-1.71l-.78-.16ZM63.74,31.23c0,1.01,0,2.18-.16,3.43-.7-.08-.78-.78-.78-1.32v-1.56c0-.55,0-1.09-.08-1.71.16.93.62,1.17,1.01,1.17ZM62.77,45.48v1.28l.23.04-.04-.97.35,1.01.47.04v-1.28h-.23l.04.93-.31-.97-.51-.08ZM63.47,93.77c.47.08,2.76.12,3.23.12,1.64,0,3.97-.31,5.45-.93-3.12,1.71-6.04,1.56-8.68,1.48,1.48.7,2.84,1.01,4.13,1.01,3.23,0,5.65-2.38,7.36-2.38,1.01,0,1.64.39,1.71,1.32.04-.12.08-.35.08-.47,0-2.49-2.88-3.66-4.83-3.66-2.65,0-6.35,2.06-8.99,2.88,3.12,0,6.58-1.56,9.23-1.56.86,0,1.79.16,2.34.39-3.43-.55-6.27,1.48-11.02,1.79ZM63.2,77.49c0,2.57,1.25,3.58,1.48,4.91v-9.27l-.55-.55c0,1.79-.93,2.41-.93,4.91ZM65.73,62.93v.31c1.09.23,1.79.47,1.79.86h-4.28c0-.39.62-.62,1.71-.86v-.47l.78.16ZM63.66,42.76c0-.23.08-.47.16-.78.08.47,1.17.7,1.17,1.48v.31c.16-.39.55-.39.86-.39.78,0,1.05.04,1.17-.08-.16.7-.62,1.09-1.32,1.09-.93,0-2.02-.62-2.02-1.64ZM64.99,98.56v1.83c0,.39-.35.66-.7.55-.39-.12-.62-.39-.62-1.01v-1.83l.39.16v1.75c0,.31.12.51.31.55.16.04.23-.08.23-.23v-1.87l.39.12ZM66.27,59.03l.7-.16c2.45-.55,3.89-1.4,3.89-3.27,0-1.56-1.25-2.41-2.73-2.41-1.01,0-1.6.27-2.26.86-.51.43-.86.62-1.4.62-.31,0-.55-.16-.55-.31,0-.62,1.95-2.26,4.21-2.26,2.1,0,3.89,1.25,3.89,3.43,0,2.41-2.02,3.58-4.83,4.28l-.93.16v-.93ZM65.38,31.54v1.09c0,1.48-.16,3.43-.62,5.06-.39-.16-.7-.55-.7-1.4,0-.23,0-.55.08-.78.08-.55.23-1.87.23-3.43,0-.55,0-1.17-.08-1.79.23,1.01.7,1.25,1.09,1.25ZM64.37,41.51c0-.16,0-.31.08-.39.23.47,1.32.55,1.32,1.32.16-.7,1.25-.39,1.71-.86-.08.93-.55,1.25-1.32,1.25-1.01,0-1.79-.47-1.79-1.32ZM65.26,53.74c0-.16-.12-.27-.27-.27s-.27.12-.27.27.12.27.27.27.27-.12.27-.27ZM64.83,40.26c0-.16,0-.23.08-.39.31.47,1.09.47,1.09,1.09.23-.62,1.09-.39,1.48-.7-.08.78-.55,1.25-1.25,1.25-.86,0-1.4-.55-1.4-1.25ZM67.01,101.98l-1.09-.47v-.58l-.47-.19-.16.55-.35-.16.7-2.3,1.36.55v.43l-.62-.27v.62l.47.19v.39l-.47-.19v.7l.62.23v.51ZM65.77,73.87c-.23-.12-.51-.27-.7-.43v9.03l.7-1.05v-7.55ZM66.23,40.19c-.7,0-1.13-.62-1.09-1.4.16.16,1.09.31,1.01,1.09.08-.78.78-.62,1.09-1.01v.39c0,.47-.39.93-1.01.93ZM65.57,100.39l.35.16v-1.25l-.08-.04-.12.51-.16.62ZM66.23,38.94c-.23-.08-.47-.39-.47-.78,0-.47.31-.86.31-1.48.39.39.7.93.7,1.4s-.31.78-.55.86ZM66.86,74.3c-.31-.08-.47-.16-.7-.23v6.78l.7-1.05v-5.49ZM66.51,33.26c0-4.75,2.49-6.78,4.83-6.78,1.95,0,3.27,1.28,3.27,2.92,0,1.32-1.01,2.22-2.26,2.22-.39,0-.9-.04-1.28-.27,1.13,2.57,3.58,4.21,3.58,7.52,0,1.71-.74,3.74-2.14,4.83-2.02.31-3.66,1.64-3.82,2.65-.55-.47-1.09-1.4-1.09-2.34,0-1.01.62-2.02,1.87-2.34-2.26-2.57-2.96-6-2.96-8.41ZM70.25,30.06c0-.7.43-1.17,1.01-1.17.62,0,.93.47.93.93,0,.51-.39,1.01-1.25.93.31.31.86.39,1.4.39.9,0,1.64-.74,1.64-1.75,0-1.4-1.01-2.38-2.65-2.38-2.02,0-4.28,1.87-4.28,6.23,0,2.73.86,5.84,3.19,8.64-1.4.31-2.1,1.09-2.1,2.1,0,.62.19,1.09.43,1.36.62-.97,1.4-1.6,3-1.95-.86-.39-1.83-.23-2.53.31.43-.93,1.44-1.32,2.69-1.09-3.54-6.46-4.05-10.47-3-12.81-.39,2.3-.35,5.8,3.58,12.38.35-5.22-1.95-6.23-2.53-9.89,1.01,3.47,3.54,4.48,3.23,9.93.74-.93,1.05-2.38,1.05-3.39,0-3.66-3.82-6-3.82-8.8ZM67.25,74.37v4.87l.66-.97v-3.85c-.19,0-.43,0-.66-.04ZM68.14,102.45l-.31-.93-.04-.23h-.16v.97l-.39-.16v-2.65l.39.16c.62.23.78.55.78.93,0,.16-.08.51-.31.62l.58,1.52-.55-.23ZM68.03,100.54c0-.31-.16-.43-.39-.51v.86c.16.08.39-.04.39-.35ZM68.96,74.3c-.19.04-.43.08-.66.08v3.27l.66-.97v-2.38ZM69.74,103.11l-1.01-.39v-2.65l1.01.47v.39l-.62-.27v.66l.55.19v.39l-.55-.19v.78l.62.19v.43ZM70.05,73.98c-.16,0-.39.16-.7.23v1.87l1.01-1.48c.16-.23,0-.62-.31-.62ZM70.32,102.14c0-.19.12-.31.31-.31s.31.12.31.31-.12.31-.31.31-.31-.12-.31-.31ZM72.46,101.71l.39.16-.39,2.38-.7-.27-.31-2.69.43.19.19,1.6v.66l.12.04.04-.66.23-1.4ZM72.54,98.59c0,.66.39,1.05.97,1.05.9,0,1.99-.62,2.8-1.09-.47-.62-1.44-1.13-2.3-1.13s-1.48.47-1.48,1.17ZM72.58,87.61c3.58-.93,3.62-4.91,4.71-8.26,4.44,3.12,6.07,5.84,6.07,8.96,0,3.62-1.95,5.3-3.89,5.3-1.17,0-1.87-.7-1.87-1.56,0-.62.55-1.09,1.09-1.09.62,0,.93.39,1.01.7.16-.16.16-.31.16-.58,0-.82-.86-2.14-1.09-3.47-.47,1.01-1.79,1.71-3.12,1.71-1.25,0-2.61-.62-3.08-1.71ZM78.5,98.52c-.78,0-1.6.39-2.49.9-.97.55-2.06,1.01-3.08.74,1.28.55,3,.93,4.24.93,1.4,0,2.88-.55,2.88-1.52,0-.51-.55-1.05-1.56-1.05ZM74.02,104.75l-1.01-.35v-2.49l1.01.35v.39l-.62-.23v.66l.47.12v.39l-.47-.16v.74l.62.16v.43ZM82.74,88.31c0-2.49-1.4-5.22-3.89-7.01,1.79,2.73,2.8,5.68,2.57,8.53-.39-2.53-1.44-5.92-3.23-8.33.19,2.73-.82,5.72-2.45,6.27,1.25-1.09,2.22-4.05,1.64-6.31-.7,3.66-1.83,5.72-3.78,6.46.35.35,1.21.78,2.06.78,1.75,0,3.23-1.21,3.19-4.56v-.19.19c.08,4.13,1.6,5.41,1.6,6.97,0,1.25-.9,1.95-1.91,1.64,1.56,1.01,4.21-.58,4.21-4.44ZM75.11,105.02l-.27-.74-.04-.19h-.16v.82l-.39-.08v-2.53l.47.12c.47.12.7.47.7.93,0,.27-.16.55-.31.62l.47,1.17-.47-.12ZM75.03,103.27c0-.23-.16-.43-.39-.43v.9c.23,0,.39-.16.39-.47ZM77.37,46.57c-1.25-1.4-2.02-3.66-2.02-5.61,0-3.97,2.38-6.11,4.44-6.15-.12.43-.19.9-.19,1.32,0,1.79,1.13,2.41,1.13,4.83.78-.62,1.95-.97,2.88-.97s1.48.16,1.64.23c.31,1.95-.78,3.93-2.49,4.87.66.23,1.09.66,1.48,1.05.04-.62.51-1.13,1.4-1.13,1.09,0,2.34.86,2.34,2.49,0,1.48-1.25,2.57-2.88,2.57-3.04,0-5.22-3.5-7.71-3.5ZM76.13,102.72v1.71c0,.27.08.39.23.39.08,0,.23-.08.23-.31v-1.75h.43v1.67c0,.55-.27.86-.66.86s-.7-.23-.7-.86v-1.79l.47.08ZM87.34,47.51c0-.93-.62-1.99-1.71-1.99-.12,0-.27,0-.51.08.47-.08.82.23.82.66,0,.51-.39.86-.86.86-1.17,0-1.17-1.56-3.66-1.95,2.8-1.17,3.35-3.31,3.27-4.56-.35-.08-.62-.12-1.01-.12-1.09,0-2.49.39-3.74,2.1.16-.47.19-1.01.19-1.64,0-2.26-1.09-3.15-1.09-4.63,0-.31.04-.66.12-.9-.12,0-.31.08-.43.12-1.71.7-2.8,2.57-2.8,5.41,0,1.64.66,3.47,1.21,4.24-.43-3.5-.27-6.27.93-8.14-.55,2.02-.93,4.71-.35,8.02.47-1.56.9-3.5,1.17-5.33.16,1.71-.16,3.82-.58,5.49,1.25-1.48,3.27-3.31,5.06-3.82-2.02,1.25-3.74,2.84-4.59,4.13,1.36-.7,2.65-1.56,3.85-2.3-.78.93-2.3,2.02-3.58,2.69.7,0,2.1.04,3.04.62,1.79,1.13,2.92,2.18,4.05,1.32-1.05,1.28-2.53.27-4.24-.82-1.13-.7-2.41-.66-2.88-.62,2.02.93,3.97,3.08,6.07,3.08,1.32,0,2.26-.86,2.26-2.02ZM78.31,104.59l-.31.08-.31-1.32h-.08l.12.93v.82l-.39.04v-2.38l.43-.04.31.93.04.51h.08l.04-.55.23-1.01.47-.08v2.1l-.39.19v-.78l.12-.9-.08.04-.27,1.4ZM83.83,55.33c0,2.84-1.56,5.57-1.56,8.29,0,.39.08.86.23,1.25-2.73-1.4-4.83-4.67-4.83-8.26,0-3.97,2.57-5.53,2.57-7.4,0-.16,0-.31-.08-.47,2.41,1.17,3.66,3.82,3.66,6.58ZM79.71,55.8c.04-1.25.47-3.93.78-5.1-1.4,2.34-2.18,3.97-2.18,5.92,0,2.73,1.09,5.14,3.35,7.09-.08-2.88,1.56-5.53,1.56-8.37,0-1.83-.47-3.54-1.56-4.87.23.78.39,2.57.39,3.89,0,1.79-.55,4.52-1.25,6.85.39-2.96.62-5.06.62-6.85,0-.78-.08-2.57-.39-3.66-.35,1.32-.58,3.12-.78,5.1-.12,1.13-.23,2.34-.31,3.54-.16-.78-.27-2.41-.23-3.54ZM83.52,73.83c1.4,1.32,2.73,3.43,2.73,6.62,0,2.41-1.01,4.36-2.26,5.02-.78-2.3-1.95-3.54-2.96-4.71-1.4-1.56-2.57-3.19-2.57-6.23,0-1.32.31-3.27.78-4.28.86,1.48,2.65,2.02,4.28,3.58ZM83.68,66.43c.39,0,1.32-.08,1.6-.78-.08.12-.23.19-.55.19-.58,0-1.01-.51-1.01-1.09,0-.78.58-1.32,1.52-1.36,1.64-.08,2.96,1.56,2.96,3.66,0,2.65-1.95,4.44-4.44,4.44-2.65,0-5.14-2.02-5.14-6.07,0-.93.08-1.71.23-2.41,1.01,2.18,2.96,3.43,4.83,3.43ZM79.63,65.26c.58,1.83,2.26,3.43,4.09,3.43,1.28,0,2.14-.47,2.76-1.56-.39,1.25-1.4,2.18-2.76,2.18-2.3,0-3.78-1.64-4.56-3.35.31,2.73,1.79,4.91,4.59,4.91,2.18,0,3.82-1.64,3.82-3.82,0-1.83-1.05-3.15-2.34-3.15-.27,0-.62.08-.78.35.16-.12.31-.19.58-.19.58,0,.97.47.97,1.09,0,1.05-.86,1.91-2.34,1.91-1.71,0-2.88-.7-4.05-1.79ZM79.24,72.89c-.08.9-.08,1.13-.08,1.64,0,2.96,1.17,4.36,2.34,5.84.93,1.01,2.02,2.49,2.8,4.13.62-.7,1.32-2.1,1.32-4.05,0-3.19-1.6-6.19-5.18-8.1,2.14,2.38,3.85,5.22,3.93,9.73-.7-4.13-2.26-6.93-4.44-9.27.58,2.88,1.87,5.22,3.12,7.71-1.71-1.95-3.15-4.63-3.82-7.63Z"/>
      </g>
      <rect class="cls-1" width="244.33" height="128.5"/>
    </g>
  </g>
</svg>